<svg width="20" height="19" viewBox="0 0 20 19" fill="none" xmlns="http://www.w3.org/2000/svg">
<path d="M10 18.7L8.55 17.4C6.86667 15.8833 5.475 14.575 4.375 13.475C3.275 12.375 2.4 11.3873 1.75 10.512C1.1 9.63667 0.646 8.83267 0.388 8.10001C0.13 7.36734 0.000666667 6.61734 0 5.85001C0 4.28334 0.525 2.97501 1.575 1.92501C2.625 0.875006 3.93333 0.350006 5.5 0.350006C6.36667 0.350006 7.19167 0.533339 7.975 0.900006C8.75833 1.26667 9.43333 1.78334 10 2.45001C10.5667 1.78334 11.2417 1.26667 12.025 0.900006C12.8083 0.533339 13.6333 0.350006 14.5 0.350006C16.0667 0.350006 17.375 0.875006 18.425 1.92501C19.475 2.97501 20 4.28334 20 5.85001C20 6.61667 19.871 7.36667 19.613 8.10001C19.355 8.83334 18.9007 9.63734 18.25 10.512C17.5993 11.3867 16.7243 12.3743 15.625 13.475C14.5257 14.5757 13.134 15.884 11.45 17.4L10 18.7ZM10 16C11.6 14.5667 12.9167 13.3377 13.95 12.313C14.9833 11.2883 15.8 10.3967 16.4 9.63801C17 8.87934 17.4167 8.20401 17.65 7.61201C17.8833 7.02001 18 6.43267 18 5.85001C18 4.85001 17.6667 4.01667 17 3.35001C16.3333 2.68334 15.5 2.35001 14.5 2.35001C13.7167 2.35001 12.9917 2.57067 12.325 3.01201C11.6583 3.45334 11.2 4.01601 10.95 4.70001H9.05C8.8 4.01667 8.34167 3.45434 7.675 3.01301C7.00833 2.57167 6.28333 2.35067 5.5 2.35001C4.5 2.35001 3.66667 2.68334 3 3.35001C2.33333 4.01667 2 4.85001 2 5.85001C2 6.43334 2.11667 7.02101 2.35 7.61301C2.58333 8.20501 3 8.88001 3.6 9.63801C4.2 10.396 5.01667 11.2877 6.05 12.313C7.08333 13.3383 8.4 14.5673 10 16Z" fill="#E88652" style="fill:#E88652;fill:color(display-p3 0.9098 0.5255 0.3216);fill-opacity:1;"/>
</svg>
