<svg width="192" height="45" viewBox="0 0 192 45" fill="none" xmlns="http://www.w3.org/2000/svg">
<path d="M69.7116 19.7646C72.3181 22.1755 73.0799 25.1258 72.9866 28.4567C72.8894 31.8907 72.9648 35.3287 72.9648 38.7647V39.9087H66.7738C66.758 39.5915 66.7242 39.2465 66.7223 38.9015C66.7183 34.7061 66.7223 30.5088 66.7183 26.3134C66.7163 23.8053 65.6015 22.7049 63.0763 22.7029C62.2928 22.7029 61.5072 22.7029 60.6324 22.7029V39.9008H54.4256V0.542325C54.5684 0.490775 54.6894 0.407501 54.8084 0.407501C58.0457 0.42931 61.293 0.310349 64.5184 0.528445C69.0967 0.837746 72.7288 4.69607 72.9172 9.30187C72.9926 11.1379 72.9509 13.0135 72.6593 14.8217C72.3499 16.7409 71.2847 18.3707 69.7136 19.7685L69.7116 19.7646ZM60.6582 17.7422C61.8425 17.7422 62.9612 17.8156 64.0642 17.7224C65.1294 17.6332 66.0081 17.1117 66.5041 16.1005C67.9898 13.063 67.9759 9.99582 66.4604 7.00789C66.1311 6.35757 65.3 5.68742 64.5997 5.55656C63.3401 5.3226 62.0071 5.49113 60.6582 5.49113V17.7442V17.7422Z" fill="#E88652"/>
<path d="M85.3786 0.449142V1.65859C85.3786 11.6038 85.3667 21.549 85.4004 31.4942C85.4024 32.2892 85.5749 33.1438 85.9042 33.8615C86.3049 34.7399 87.1361 35.2375 88.1398 35.2692C89.1931 35.3029 90.2484 35.2772 91.4545 35.2772V0.461038H97.6713V39.9266C97.34 39.9444 97.0206 39.9762 96.7013 39.9762C94.1225 39.9801 91.5418 39.9048 88.967 39.994C83.4068 40.1863 79.0943 35.7352 79.132 30.1182C79.1955 20.5695 79.1499 11.0209 79.1499 1.47221V0.449142H85.3786Z" fill="#E88652"/>
<path d="M6.37547 0.449141C7.84933 7.99925 9.31922 15.5196 10.7871 23.04C10.8645 23.0439 10.9418 23.0479 11.0192 23.0519C12.4911 15.5295 13.963 8.00717 15.4428 0.445175H21.8143C19.2395 13.636 16.6786 26.7536 14.1078 39.9187H7.7065C5.1456 26.8071 2.58074 13.6678 0 0.449141H6.37547Z" fill="#E88652"/>
<path d="M26.0355 0.441208H32.0936V33.7644H40.7304V39.9087H26.0355V0.441208Z" fill="#E88652"/>
<path d="M158.628 0.0295486C144.461 2.17086 134.065 9.55243 127.314 22.3785C124.72 18.5816 121.556 15.4688 117.693 13.0955C113.815 10.7103 109.614 9.24313 105 8.68203C109.301 7.8612 118.344 8.87237 126.114 14.5131C134.699 4.61751 145.465 -0.436385 158.628 0.0295486Z" fill="#4A9AE8"/>
<path d="M50.6725 33.8814V39.9087H44.5589V33.8814H50.6725Z" fill="#E88652"/>
<path d="M130.539 40L129.504 36.6016H124.299L123.264 40H120.002L125.041 25.6641H128.742L133.801 40H130.539ZM128.781 34.0625C127.824 30.9831 127.284 29.2415 127.16 28.8379C127.043 28.4342 126.958 28.1152 126.906 27.8809C126.691 28.7142 126.076 30.7747 125.061 34.0625H128.781ZM142.352 29.0234C144.174 29.1732 145.604 29.7363 146.639 30.7129C147.674 31.6895 148.191 32.9655 148.191 34.541C148.191 36.1491 147.68 37.4382 146.658 38.4082C145.636 39.3717 144.201 39.9284 142.352 40.0781V44.8047H139.588V40.0781C137.745 39.9089 136.303 39.3327 135.262 38.3496C134.227 37.36 133.709 36.0905 133.709 34.541C133.709 32.8939 134.21 31.5951 135.213 30.6445C136.215 29.6875 137.674 29.1471 139.588 29.0234V24.8047H142.352V29.0234ZM136.775 34.541C136.775 35.459 137.026 36.2077 137.527 36.7871C138.029 37.36 138.715 37.7051 139.588 37.8223V31.2598C138.748 31.3704 138.068 31.7253 137.547 32.3242C137.033 32.9232 136.775 33.6621 136.775 34.541ZM145.135 34.541C145.135 33.6816 144.891 32.959 144.402 32.373C143.914 31.7806 143.23 31.4225 142.352 31.2988V37.8223C143.217 37.7051 143.898 37.3568 144.393 36.7773C144.887 36.1979 145.135 35.4525 145.135 34.541ZM152.543 29.082V33.3984C152.543 33.8542 152.468 34.9674 152.318 36.7383L157.357 29.082H160.941V40H158.061V35.6445C158.061 34.8698 158.126 33.776 158.256 32.3633L153.236 40H149.662V29.082H152.543ZM179.336 40H163.076V29.082H166.055V37.7637H169.717V29.082H172.695V37.7637H176.357V29.082H179.336V40ZM188.404 40L187.828 38.5156H187.75C187.249 39.1471 186.731 39.5866 186.197 39.834C185.67 40.0749 184.98 40.1953 184.127 40.1953C183.079 40.1953 182.252 39.8958 181.646 39.2969C181.048 38.6979 180.748 37.8451 180.748 36.7383C180.748 35.5794 181.152 34.7266 181.959 34.1797C182.773 33.6263 183.997 33.3203 185.631 33.2617L187.525 33.2031V32.7246C187.525 31.6178 186.959 31.0645 185.826 31.0645C184.954 31.0645 183.928 31.3281 182.75 31.8555L181.764 29.8438C183.02 29.1862 184.413 28.8574 185.943 28.8574C187.408 28.8574 188.531 29.1764 189.312 29.8145C190.094 30.4525 190.484 31.4225 190.484 32.7246V40H188.404ZM187.525 34.9414L186.373 34.9805C185.507 35.0065 184.863 35.1628 184.439 35.4492C184.016 35.7357 183.805 36.1719 183.805 36.7578C183.805 37.5977 184.286 38.0176 185.25 38.0176C185.94 38.0176 186.49 37.819 186.9 37.4219C187.317 37.0247 187.525 36.4974 187.525 35.8398V34.9414Z" fill="#E88652"/>
</svg>
