<svg width="30" height="30" viewBox="0 0 30 30" fill="none" xmlns="http://www.w3.org/2000/svg">
<path d="M15 0.600098C7.047 0.600098 0.599998 7.0471 0.599998 15.0001C0.599998 22.9531 7.047 29.4001 15 29.4001C22.953 29.4001 29.4 22.9531 29.4 15.0001C29.4 7.0471 22.953 0.600098 15 0.600098ZM20.538 16.8466C20.538 16.8466 21.8115 18.1036 22.125 18.6871C22.134 18.7001 22.1395 18.7101 22.1415 18.7171C22.2685 18.9301 22.3 19.0986 22.236 19.2226C22.131 19.4296 21.771 19.5316 21.648 19.5406H19.398C19.242 19.5406 18.915 19.5001 18.519 19.2271C18.2145 19.0141 17.9145 18.6646 17.622 18.3241C17.1855 17.8171 16.8075 17.3791 16.4265 17.3791C16.3781 17.3789 16.33 17.3865 16.284 17.4016C15.996 17.4946 15.627 17.9056 15.627 19.0006C15.627 19.3426 15.357 19.5391 15.1665 19.5391H14.136C13.785 19.5391 11.9565 19.4161 10.3365 17.7076C8.3535 15.6151 6.5685 11.4181 6.5535 11.3791C6.441 11.1076 6.6735 10.9621 6.927 10.9621H9.1995C9.5025 10.9621 9.6015 11.1466 9.6705 11.3101C9.7515 11.5006 10.0485 12.2581 10.536 13.1101C11.3265 14.4991 11.811 15.0631 12.1995 15.0631C12.2723 15.0622 12.3439 15.0437 12.408 15.0091C12.915 14.7271 12.8205 12.9196 12.798 12.5446C12.798 12.4741 12.7965 11.7361 12.537 11.3821C12.351 11.1256 12.0345 11.0281 11.8425 10.9921C11.9202 10.8849 12.0226 10.7979 12.141 10.7386C12.489 10.5646 13.116 10.5391 13.7385 10.5391H14.085C14.76 10.5481 14.934 10.5916 15.1785 10.6531C15.6735 10.7716 15.684 11.0911 15.6405 12.1846C15.627 12.4951 15.6135 12.8461 15.6135 13.2601L15.609 13.5481C15.594 14.1046 15.576 14.7361 15.969 14.9956C16.0197 15.029 16.0793 15.0463 16.14 15.0451C16.2765 15.0451 16.6875 15.0451 17.8005 13.1356C18.1425 12.5203 18.4407 11.8818 18.693 11.2246C18.7155 11.1856 18.7815 11.0656 18.8595 11.0191C18.9177 10.9915 18.9811 10.9766 19.0455 10.9756H21.717C22.008 10.9756 22.2075 11.0191 22.245 11.1316C22.311 11.3101 22.233 11.8546 21.0135 13.5061L20.469 14.2246C19.3635 15.6736 19.3635 15.7471 20.538 16.8466Z" fill="#4A9AE8" style="fill:#4A9AE8;fill:color(display-p3 0.2902 0.6039 0.9098);fill-opacity:1;"/>
</svg>
