<svg width="58" height="58" viewBox="0 0 58 58" fill="none" xmlns="http://www.w3.org/2000/svg">
<path d="M52.2 18.3158H35.9252L39.1819 8.03758C39.7677 6.18158 39.4719 4.12411 38.3844 2.53674C37.2969 0.949369 35.5337 0 33.6748 0H29C28.1387 0 27.3238 0.402947 26.7699 1.09895L13.1399 18.3158H5.8C2.6013 18.3158 0 21.054 0 24.4211V51.8947C0 55.2618 2.6013 58 5.8 58H44.3903C45.5703 57.9959 46.7213 57.6149 47.6911 56.9074C48.661 56.1999 49.404 55.1992 49.822 54.0377L57.8173 31.5978C57.9387 31.255 58.0006 30.8921 58 30.5263V24.4211C58 21.054 55.3987 18.3158 52.2 18.3158ZM5.8 24.4211H11.6V51.8947H5.8V24.4211ZM52.2 29.9738L44.3903 51.8947H17.4V22.4735L30.3572 6.10526H33.6806L29.1508 20.4007C29.0037 20.8596 28.9627 21.3487 29.0311 21.8276C29.0996 22.3065 29.2755 22.7613 29.5442 23.1543C29.813 23.5474 30.1669 23.8673 30.5766 24.0876C30.9863 24.3079 31.4399 24.4222 31.9 24.4211H52.2V29.9738Z" fill="#96C02E" style="fill:#96C02E;fill:color(display-p3 0.5898 0.7516 0.1804);fill-opacity:1;"/>
</svg>
