<svg width="24" height="24" viewBox="0 0 24 24" fill="none" xmlns="http://www.w3.org/2000/svg">
<mask id="path-1-inside-1_178_733" fill="white">
<path d="M8.86719 5.8352L4.96959 4.8L5.67839 2.192C5.7356 1.98669 5.87162 1.8123 6.05683 1.70681C6.24203 1.60132 6.46141 1.57328 6.66719 1.6288L9.00319 2.256C9.10498 2.28293 9.20046 2.3297 9.28414 2.39362C9.36782 2.45753 9.43806 2.53734 9.49083 2.62846C9.5436 2.71959 9.57786 2.82023 9.59165 2.92462C9.60544 3.02901 9.59849 3.1351 9.57119 3.2368L8.86719 5.8352ZM1.63519 17.6048C1.59113 17.4613 1.58836 17.3082 1.62719 17.1632L4.53759 6.4016L8.43359 7.4368L5.52319 18.1984C5.48412 18.3438 5.40482 18.4752 5.29439 18.5776L2.96319 20.7328C2.93307 20.7602 2.89656 20.7796 2.857 20.7892C2.81744 20.7988 2.7761 20.7983 2.73677 20.7878C2.69744 20.7773 2.66138 20.7571 2.63189 20.729C2.6024 20.701 2.58043 20.666 2.56799 20.6272L1.63519 17.6048ZM16 8C12.4 8 11.2 6.8 11.2 3.2C14.8 3.2 16 4.4 16 8ZM13.76 20.7744C11.568 21.1104 8.75839 18.0448 8.12799 14.6944L9.55039 9.44C10.1888 8.88 10.9952 8.5872 11.8208 8.5872C12.7158 8.58247 13.5902 8.85586 14.3232 9.3696C14.5811 9.54373 14.8857 9.63544 15.1969 9.63258C15.508 9.62972 15.811 9.53244 16.0656 9.3536C16.7414 8.85322 17.5607 8.58442 18.4016 8.5872C19.6336 8.5872 21.0304 9.3696 21.6816 10.5088C24.1392 14.8224 19.7712 21.2432 16.6512 20.776C16.5084 20.7473 16.3709 20.6971 16.2432 20.6272C15.9207 20.4623 15.5637 20.3764 15.2016 20.3764C14.8394 20.3764 14.4824 20.4623 14.16 20.6272C14.0347 20.6958 13.8999 20.7454 13.76 20.7744Z"/>
</mask>
<path d="M8.86719 5.8352L8.45647 7.38159L9.99517 7.79026L10.4115 6.25361L8.86719 5.8352ZM4.96959 4.8L3.42559 4.38037L3.00354 5.93329L4.55887 6.34639L4.96959 4.8ZM5.67839 2.192L4.13709 1.76247L4.13439 1.77237L5.67839 2.192ZM6.66719 1.6288L6.25043 3.17357L6.25229 3.17407L6.66719 1.6288ZM9.00319 2.256L8.58829 3.80128L8.5939 3.80276L9.00319 2.256ZM9.57119 3.2368L11.1155 3.65521L11.1165 3.65163L9.57119 3.2368ZM1.63519 17.6048L0.105605 18.0743L0.106343 18.0766L1.63519 17.6048ZM1.62719 17.1632L0.0826668 16.7455L0.0816069 16.7495L1.62719 17.1632ZM4.53759 6.4016L4.94846 4.85525L3.40893 4.44619L2.99307 5.9839L4.53759 6.4016ZM8.43359 7.4368L9.9781 7.8545L10.3977 6.30315L8.84446 5.89045L8.43359 7.4368ZM5.52319 18.1984L3.97867 17.7807L3.97797 17.7833L5.52319 18.1984ZM5.29439 18.5776L6.38054 19.7525L6.382 19.7511L5.29439 18.5776ZM2.96319 20.7328L4.03976 21.9165L4.04934 21.9076L2.96319 20.7328ZM2.56799 20.6272L1.03914 21.099L1.04178 21.1076L1.04452 21.1161L2.56799 20.6272ZM16 8V9.6H17.6V8H16ZM11.2 3.2V1.6H9.59999V3.2H11.2ZM13.76 20.7744L14.0024 22.3559L14.0435 22.3496L14.0843 22.3412L13.76 20.7744ZM8.12799 14.6944L6.58357 14.2763L6.48781 14.6301L6.55558 14.9903L8.12799 14.6944ZM9.55039 9.44L8.49529 8.23718L8.13218 8.55569L8.00597 9.02192L9.55039 9.44ZM11.8208 8.5872V10.1872L11.8292 10.1872L11.8208 8.5872ZM14.3232 9.3696L13.4048 10.6798L13.4162 10.6878L13.4278 10.6956L14.3232 9.3696ZM16.0656 9.3536L16.9852 10.6629L17.0016 10.6514L17.0177 10.6395L16.0656 9.3536ZM18.4016 8.5872L18.3963 10.1872H18.4016V8.5872ZM21.6816 10.5088L23.0718 9.71675L23.0707 9.71477L21.6816 10.5088ZM16.6512 20.776L16.3359 22.3446L16.3749 22.3525L16.4142 22.3584L16.6512 20.776ZM16.2432 20.6272L17.0118 19.2239L16.9918 19.213L16.9716 19.2026L16.2432 20.6272ZM14.16 20.6272L13.4316 19.2026L13.4113 19.213L13.3913 19.224L14.16 20.6272ZM9.2779 4.28881L5.38031 3.25361L4.55887 6.34639L8.45647 7.38159L9.2779 4.28881ZM6.51358 5.21962L7.22238 2.61162L4.13439 1.77237L3.42559 4.38037L6.51358 5.21962ZM7.21966 2.62152C7.16357 2.82277 7.03024 2.99371 6.84871 3.0971L5.26494 0.316514C4.71301 0.630886 4.30764 1.1506 4.13712 1.76247L7.21966 2.62152ZM6.84871 3.0971C6.66717 3.2005 6.45214 3.22799 6.25043 3.17357L7.08394 0.0840274C6.47067 -0.0814197 5.81688 0.00214183 5.26494 0.316514L6.84871 3.0971ZM6.25229 3.17407L8.58829 3.80127L9.41808 0.710728L7.08208 0.0835278L6.25229 3.17407ZM8.5939 3.80276C8.4921 3.77583 8.39663 3.72906 8.31294 3.66515L10.2553 1.12209C10.0043 0.930342 9.71786 0.790041 9.41247 0.709233L8.5939 3.80276ZM8.31294 3.66515C8.22927 3.60123 8.15903 3.52142 8.10625 3.4303L10.8754 1.82663C10.7171 1.55326 10.5064 1.31384 10.2553 1.12209L8.31294 3.66515ZM8.10625 3.4303C8.05348 3.33917 8.01922 3.23853 8.00543 3.13414L11.1779 2.7151C11.1365 2.40193 11.0337 2.1 10.8754 1.82663L8.10625 3.4303ZM8.00543 3.13414C7.99164 3.02975 7.9986 2.92366 8.0259 2.82196L11.1165 3.65163C11.1984 3.34654 11.2192 3.02827 11.1779 2.7151L8.00543 3.13414ZM8.02686 2.81839L7.32286 5.41679L10.4115 6.25361L11.1155 3.65521L8.02686 2.81839ZM3.16477 17.1353C3.20882 17.2789 3.21159 17.4319 3.17277 17.5769L0.0816069 16.7495C-0.0348684 17.1846 -0.0265514 17.6437 0.105607 18.0743L3.16477 17.1353ZM3.1717 17.5809L6.0821 6.8193L2.99307 5.9839L0.0826718 16.7455L3.1717 17.5809ZM4.12671 7.94794L8.02271 8.98314L8.84446 5.89045L4.94846 4.85525L4.12671 7.94794ZM6.88907 7.0191L3.97867 17.7807L7.0677 18.6161L9.9781 7.8545L6.88907 7.0191ZM3.97797 17.7833C4.01703 17.6379 4.09633 17.5065 4.20677 17.4041L6.382 19.7511C6.7133 19.444 6.95122 19.0497 7.0684 18.6135L3.97797 17.7833ZM4.20823 17.4027L1.87703 19.5579L4.04934 21.9076L6.38054 19.7524L4.20823 17.4027ZM1.88665 19.5491C2.05469 19.3963 2.25839 19.2881 2.47906 19.2345L3.23493 22.3439C3.53473 22.271 3.81145 22.1241 4.03972 21.9165L1.88665 19.5491ZM2.47906 19.2345C2.69975 19.1808 2.93038 19.1834 3.14981 19.2421L2.32373 22.3336C2.62182 22.4133 2.93513 22.4168 3.23493 22.3439L2.47906 19.2345ZM3.14981 19.2421C3.36921 19.3007 3.57041 19.4135 3.73495 19.5701L1.52883 21.888C1.75234 22.1008 2.02567 22.254 2.32373 22.3336L3.14981 19.2421ZM3.73495 19.5701C3.89947 19.7266 4.02205 19.922 4.09145 20.1383L1.04452 21.1161C1.1388 21.4099 1.30533 21.6753 1.52883 21.888L3.73495 19.5701ZM4.09683 20.1554L3.16403 17.133L0.106343 18.0766L1.03914 21.099L4.09683 20.1554ZM16 6.4C14.2886 6.4 13.6569 6.09413 13.3814 5.81863C13.1059 5.54313 12.8 4.91136 12.8 3.2H9.59999C9.59999 5.08864 9.89412 6.85687 11.1186 8.08137C12.3431 9.30587 14.1113 9.6 16 9.6V6.4ZM11.2 4.8C12.9113 4.8 13.5431 5.10587 13.8186 5.38137C14.0941 5.65687 14.4 6.28864 14.4 8H17.6C17.6 6.11136 17.3059 4.34313 16.0814 3.11863C14.8569 1.89413 13.0886 1.6 11.2 1.6V4.8ZM13.5176 19.1929C13.218 19.2388 12.4657 19.0409 11.5341 18.0316C10.6701 17.0956 9.95676 15.7611 9.70039 14.3985L6.55558 14.9903C6.92961 16.9781 7.93623 18.8516 9.18267 20.202C10.3614 21.4791 12.1099 22.646 14.0024 22.3559L13.5176 19.1929ZM9.6724 15.1125L11.0948 9.85808L8.00597 9.02192L6.58357 14.2763L9.6724 15.1125ZM10.6055 10.6428C10.9459 10.3442 11.3752 10.1872 11.8208 10.1872V6.9872C10.6152 6.9872 9.43169 7.41577 8.49529 8.23718L10.6055 10.6428ZM11.8292 10.1872C12.3928 10.1842 12.9433 10.3563 13.4048 10.6798L15.2415 8.0594C14.2371 7.35539 13.0389 6.98074 11.8123 6.98722L11.8292 10.1872ZM13.4278 10.6956C13.9543 11.0511 14.5763 11.2383 15.2116 11.2325L15.1822 8.03265C15.1951 8.03253 15.2078 8.03635 15.2186 8.04361L13.4278 10.6956ZM15.2116 11.2325C15.8468 11.2267 16.4653 11.0281 16.9852 10.6629L15.146 8.04427C15.1566 8.03682 15.1692 8.03277 15.1822 8.03265L15.2116 11.2325ZM17.0177 10.6395C17.4165 10.3442 17.9 10.1856 18.3963 10.1872L18.4069 6.98721C17.2214 6.98329 16.0663 7.36226 15.1135 8.06771L17.0177 10.6395ZM18.4016 10.1872C19.0633 10.1872 19.9281 10.6653 20.2925 11.3028L23.0707 9.71477C22.1327 8.07388 20.2039 6.9872 18.4016 6.9872V10.1872ZM20.2914 11.3008C21.1354 12.7823 20.8878 14.8319 19.8639 16.6501C19.3674 17.5315 18.7454 18.2435 18.1428 18.6926C17.5145 19.161 17.0829 19.2228 16.8881 19.1936L16.4142 22.3584C17.7795 22.5628 19.0639 21.9972 20.0552 21.2583C21.0724 20.5001 21.9737 19.4249 22.6521 18.2203C23.9777 15.8665 24.6854 12.5489 23.0718 9.71675L20.2914 11.3008ZM16.9665 19.2074C16.9823 19.2106 16.9976 19.2161 17.0118 19.2239L15.4746 22.0305C15.7442 22.1782 16.0346 22.2841 16.3359 22.3446L16.9665 19.2074ZM16.9716 19.2026C16.4236 18.9224 15.817 18.7764 15.2016 18.7764V21.9764C15.3105 21.9764 15.4178 22.0022 15.5148 22.0518L16.9716 19.2026ZM15.2016 18.7764C14.5862 18.7764 13.9795 18.9224 13.4316 19.2026L14.8884 22.0518C14.9853 22.0022 15.0927 21.9764 15.2016 21.9764V18.7764ZM13.3913 19.224C13.4052 19.2163 13.4202 19.2108 13.4357 19.2076L14.0843 22.3412C14.3796 22.2801 14.6642 22.1753 14.9287 22.0304L13.3913 19.224Z" fill="white" style="fill:white;fill-opacity:1;" mask="url(#path-1-inside-1_178_733)"/>
</svg>
