<svg width="24" height="24" viewBox="0 0 24 24" fill="none" xmlns="http://www.w3.org/2000/svg">
<path d="M14.013 6.8025C14.3955 6.255 14.625 5.592 14.625 4.875C14.625 3.0135 13.11 1.5 11.25 1.5C10.3553 1.50119 9.49751 1.85715 8.86483 2.48983C8.23215 3.12251 7.87619 3.98026 7.875 4.875C7.875 5.592 8.103 6.255 8.487 6.8025C7.79212 6.9231 7.16194 7.28466 6.70713 7.82368C6.25232 8.36271 6.00195 9.04474 6 9.75V14.25C6 15.0765 6.672 15.75 7.5 15.75V20.25C7.5 21.4905 8.5095 22.5 9.75 22.5H12.75C13.9905 22.5 15 21.4905 15 20.25V15.75C15.828 15.75 16.5 15.0765 16.5 14.25V9.75C16.5 8.271 15.423 7.047 14.013 6.8025ZM11.25 3C12.2835 3 13.125 3.8415 13.125 4.875C13.125 5.9085 12.2835 6.75 11.25 6.75C10.2165 6.75 9.375 5.9085 9.375 4.875C9.375 3.8415 10.2165 3 11.25 3ZM15 14.25H13.5V20.25C13.5 20.4489 13.421 20.6397 13.2803 20.7803C13.1397 20.921 12.9489 21 12.75 21H12V16.5C12 16.3011 11.921 16.1103 11.7803 15.9697C11.6397 15.829 11.4489 15.75 11.25 15.75C11.0511 15.75 10.8603 15.829 10.7197 15.9697C10.579 16.1103 10.5 16.3011 10.5 16.5V21H9.75C9.55109 21 9.36032 20.921 9.21967 20.7803C9.07902 20.6397 9 20.4489 9 20.25V14.25H7.5V9.75C7.5 8.9235 8.172 8.25 9 8.25H13.5C14.328 8.25 15 8.9235 15 9.75V14.25Z" fill="white" style="fill:white;fill-opacity:1;"/>
</svg>
