<svg width="24" height="24" viewBox="0 0 24 24" fill="none" xmlns="http://www.w3.org/2000/svg">
<path d="M15 18.75C14.1337 18.7508 13.2807 18.5368 12.5172 18.1273C11.7538 17.7178 11.1038 17.1254 10.6253 16.4033L11.8748 15.573C12.2168 16.0888 12.6812 16.5119 13.2265 16.8046C13.7718 17.0973 14.3811 17.2505 15 17.2505C15.6189 17.2505 16.2282 17.0973 16.7735 16.8046C17.3188 16.5119 17.7832 16.0888 18.1253 15.573L19.3748 16.4033C18.8962 17.1254 18.2462 17.7178 17.4828 18.1273C16.7193 18.5368 15.8663 18.7508 15 18.75ZM18 10.5C17.7033 10.5 17.4133 10.588 17.1666 10.7528C16.92 10.9176 16.7277 11.1519 16.6142 11.426C16.5006 11.7001 16.4709 12.0017 16.5288 12.2926C16.5867 12.5836 16.7296 12.8509 16.9393 13.0607C17.1491 13.2704 17.4164 13.4133 17.7074 13.4712C17.9983 13.5291 18.2999 13.4994 18.574 13.3858C18.8481 13.2723 19.0824 13.08 19.2472 12.8334C19.412 12.5867 19.5 12.2967 19.5 12C19.502 11.8025 19.4646 11.6065 19.3899 11.4236C19.3152 11.2407 19.2048 11.0746 19.0651 10.9349C18.9254 10.7952 18.7593 10.6848 18.5764 10.6101C18.3935 10.5354 18.1975 10.498 18 10.5ZM12 10.5C11.7033 10.5 11.4133 10.588 11.1666 10.7528C10.92 10.9176 10.7277 11.1519 10.6142 11.426C10.5006 11.7001 10.4709 12.0017 10.5288 12.2926C10.5867 12.5836 10.7296 12.8509 10.9393 13.0607C11.1491 13.2704 11.4164 13.4133 11.7074 13.4712C11.9983 13.5291 12.2999 13.4994 12.574 13.3858C12.8481 13.2723 13.0824 13.08 13.2472 12.8334C13.412 12.5867 13.5 12.2967 13.5 12C13.502 11.8025 13.4646 11.6065 13.3899 11.4236C13.3152 11.2407 13.2048 11.0746 13.0651 10.9349C12.9254 10.7952 12.7593 10.6848 12.5764 10.6101C12.3935 10.5354 12.1975 10.498 12 10.5Z" fill="white" style="fill:white;fill-opacity:1;"/>
<path d="M21 6H16.5V3C16.5 2.60218 16.342 2.22064 16.0607 1.93934C15.7794 1.65804 15.3978 1.5 15 1.5H3C2.60218 1.5 2.22064 1.65804 1.93934 1.93934C1.65804 2.22064 1.5 2.60218 1.5 3V10.5C1.50292 12.3323 2.17582 14.1002 3.39191 15.4708C4.60801 16.8413 6.28333 17.7198 8.10225 17.9408C8.78006 19.5306 9.98623 20.8376 11.5167 21.6406C13.0472 22.4435 14.8081 22.6932 16.5015 22.3473C18.1949 22.0014 19.7168 21.0813 20.8099 19.7424C21.9029 18.4036 22.4999 16.7283 22.5 15V7.5C22.5 7.10218 22.342 6.72064 22.0607 6.43934C21.7794 6.15804 21.3978 6 21 6ZM3 10.5V3H15V6H9C8.60218 6 8.22064 6.15804 7.93934 6.43934C7.65804 6.72064 7.5 7.10218 7.5 7.5V15C7.50206 15.4479 7.54422 15.8947 7.626 16.335C6.31109 16.0243 5.13932 15.2794 4.29994 14.2207C3.46056 13.1619 3.00259 11.8511 3 10.5ZM21 15C21 16.5913 20.3679 18.1174 19.2426 19.2426C18.1174 20.3679 16.5913 21 15 21C13.4087 21 11.8826 20.3679 10.7574 19.2426C9.63214 18.1174 9 16.5913 9 15V7.5H21V15Z" fill="white" style="fill:white;fill-opacity:1;"/>
</svg>
