<svg width="24" height="24" viewBox="0 0 24 24" fill="none" xmlns="http://www.w3.org/2000/svg">
<path d="M18.035 15.096C17.3943 15.6041 16.6636 15.9868 15.881 16.224C15.9597 16.7207 15.9993 17.2287 16 17.748C17.7274 17.3012 19.2559 16.2899 20.3427 14.8749C21.4295 13.4599 22.0123 11.7223 21.9985 9.93817C21.9847 8.15402 21.3751 6.42563 20.2666 5.0276C19.158 3.62957 17.6141 2.64208 15.88 2.222C13.838 1.72871 11.6839 2.0581 9.88261 3.13909C8.08133 4.22009 6.77731 5.96599 6.252 8C6.77067 8 7.27833 8.03967 7.775 8.119C8.01217 7.33644 8.39486 6.60566 8.903 5.965L18.035 15.096ZM19.095 14.036L15.062 10L15.823 9.239C16.5352 9.73549 17.3829 10.0008 18.251 9.999C19.0345 10.0006 19.8031 9.78459 20.471 9.375C20.491 9.58033 20.501 9.78867 20.501 10C20.5034 11.4652 20.0084 12.8878 19.097 14.035M16.225 3.89C16.885 4.13 17.495 4.475 18.036 4.904L15.849 7.091C15.6197 6.68129 15.4995 6.21952 15.5 5.75C15.5 5.033 15.775 4.38 16.225 3.89ZM14.76 8.178L14 8.939L9.965 4.904C11.2809 3.85805 12.9522 3.36527 14.625 3.53C14.2151 4.19783 13.9987 4.96639 14 5.75C14 6.653 14.28 7.49 14.76 8.178ZM20.11 7.776C19.6031 8.2426 18.939 8.5011 18.25 8.5C17.763 8.5 17.306 8.373 16.91 8.151L19.096 5.965C19.5287 6.51015 19.8711 7.12227 20.11 7.776ZM4.25 10.5C4.05109 10.5 3.86032 10.579 3.71967 10.7197C3.57902 10.8603 3.5 11.0511 3.5 11.25V13.25C3.5 15.1728 4.26384 17.0169 5.62348 18.3765C6.98311 19.7362 8.82718 20.5 10.75 20.5H12.75C12.9489 20.5 13.1397 20.421 13.2803 20.2803C13.421 20.1397 13.5 19.9489 13.5 19.75V17.75C13.5 15.8272 12.7362 13.9831 11.3765 12.6235C10.0169 11.2638 8.17282 10.5 6.25 10.5H4.25ZM2 11.25C2 10.6533 2.23705 10.081 2.65901 9.65901C3.08097 9.23705 3.65326 9 4.25 9H6.25C8.57064 9 10.7962 9.92187 12.4372 11.5628C14.0781 13.2038 15 15.4294 15 17.75V19.75C15 20.3467 14.7629 20.919 14.341 21.341C13.919 21.7629 13.3467 22 12.75 22H10.75C8.42936 22 6.20376 21.0781 4.56282 19.4372C2.92187 17.7962 2 15.5706 2 13.25V11.25ZM7.78 13.72C7.63783 13.5875 7.44978 13.5154 7.25548 13.5188C7.06118 13.5223 6.87579 13.601 6.73838 13.7384C6.60097 13.8758 6.52225 14.0612 6.51883 14.2555C6.5154 14.4498 6.58752 14.6378 6.72 14.78L9.22 17.28C9.28866 17.3537 9.37146 17.4128 9.46346 17.4538C9.55546 17.4948 9.65478 17.5168 9.75548 17.5186C9.85618 17.5204 9.95621 17.5018 10.0496 17.4641C10.143 17.4264 10.2278 17.3703 10.299 17.299C10.3703 17.2278 10.4264 17.143 10.4641 17.0496C10.5018 16.9562 10.5204 16.8562 10.5186 16.7555C10.5168 16.6548 10.4948 16.5555 10.4538 16.4635C10.4128 16.3715 10.3537 16.2887 10.28 16.22L7.78 13.72Z" fill="white" style="fill:white;fill-opacity:1;"/>
</svg>
