<svg width="24" height="24" viewBox="0 0 24 24" fill="none" xmlns="http://www.w3.org/2000/svg">
<path d="M19.6059 11.0532C19.4821 10.9282 19.3347 10.829 19.1724 10.7613C19.01 10.6937 18.8359 10.6588 18.66 10.6588C18.4842 10.6588 18.31 10.6937 18.1477 10.7613C17.9853 10.829 17.838 10.9282 17.7142 11.0532L13.3311 15.4531V5.33331C13.3311 4.97969 13.1907 4.64056 12.9409 4.39052C12.6911 4.14047 12.3522 4 11.9989 4C11.6455 4 11.3067 4.14047 11.0568 4.39052C10.807 4.64056 10.6666 4.97969 10.6666 5.33331V15.4531L6.28357 11.0532C6.03271 10.8021 5.69246 10.6611 5.33769 10.6611C4.98291 10.6611 4.64266 10.8021 4.3918 11.0532C4.14093 11.3043 4 11.6448 4 11.9998C4 12.3549 4.14093 12.6954 4.3918 12.9465L11.053 19.613C11.1797 19.7344 11.3291 19.8296 11.4926 19.893C11.6521 19.9636 11.8245 20 11.9989 20C12.1732 20 12.3456 19.9636 12.5051 19.893C12.6686 19.8296 12.818 19.7344 12.9448 19.613L19.6059 12.9465C19.7308 12.8225 19.8299 12.6751 19.8975 12.5126C19.9652 12.3501 20 12.1759 20 11.9998C20 11.8238 19.9652 11.6496 19.8975 11.4871C19.8299 11.3246 19.7308 11.1771 19.6059 11.0532Z" fill="white" style="fill:white;fill-opacity:1;"/>
</svg>
