<svg width="16" height="16" viewBox="0 0 16 16" fill="none" xmlns="http://www.w3.org/2000/svg">
<path d="M15.6059 7.0532C15.4821 6.92823 15.3347 6.82904 15.1724 6.76135C15.01 6.69366 14.8359 6.65881 14.66 6.65881C14.4842 6.65881 14.31 6.69366 14.1477 6.76135C13.9853 6.82904 13.838 6.92823 13.7142 7.0532L9.3311 11.4531V1.33331C9.3311 0.979692 9.19074 0.640561 8.9409 0.390517C8.69105 0.140473 8.35219 0 7.99886 0C7.64553 0 7.30667 0.140473 7.05683 0.390517C6.80699 0.640561 6.66663 0.979692 6.66663 1.33331V11.4531L2.28357 7.0532C2.03271 6.80213 1.69246 6.66108 1.33769 6.66108C0.98291 6.66108 0.642664 6.80213 0.391799 7.0532C0.140934 7.30426 0 7.64478 0 7.99985C0 8.35491 0.140934 8.69543 0.391799 8.94649L7.05298 15.613C7.17968 15.7344 7.32908 15.8296 7.49261 15.893C7.65208 15.9636 7.82451 16 7.99886 16C8.17321 16 8.34564 15.9636 8.50511 15.893C8.66865 15.8296 8.81805 15.7344 8.94475 15.613L15.6059 8.94649C15.7308 8.82255 15.8299 8.67508 15.8975 8.5126C15.9652 8.35013 16 8.17586 16 7.99985C16 7.82383 15.9652 7.64956 15.8975 7.48709C15.8299 7.32461 15.7308 7.17715 15.6059 7.0532Z" fill="#E88652" style="fill:#E88652;fill:color(display-p3 0.9098 0.5255 0.3216);fill-opacity:1;"/>
</svg>
