<svg width="58" height="58" viewBox="0 0 58 58" fill="none" xmlns="http://www.w3.org/2000/svg">
<path d="M52.2 0H13.6097C12.4297 0.0041238 11.2787 0.385116 10.3089 1.09261C9.33901 1.8001 8.59598 2.80076 8.178 3.96232L0.182704 26.4022C0.0613084 26.745 -0.000575235 27.1079 4.02924e-06 27.4737V33.5789C4.02924e-06 36.946 2.6013 39.6842 5.8 39.6842H22.0748L18.821 49.9624C18.53 50.88 18.4502 51.8573 18.5884 52.8137C18.7265 53.7701 19.0786 54.6782 19.6156 55.4633C20.706 57.0506 22.4634 58 24.3252 58H29C29.8613 58 30.6762 57.597 31.2301 56.9011L44.8601 39.6842H52.2C55.3987 39.6842 58 36.946 58 33.5789V6.10526C58 2.73821 55.3987 0 52.2 0ZM27.6399 51.8947H24.3194L28.8492 37.5962C28.9943 37.1375 29.0339 36.6492 28.9646 36.1712C28.8954 35.6933 28.7193 35.2396 28.4508 34.8473C28.1824 34.4551 27.8293 34.1355 27.4206 33.915C27.0119 33.6945 26.5593 33.5793 26.1 33.5789H5.8V28.0262L13.6097 6.10526H40.6V35.5265L27.6399 51.8947ZM46.4 33.5789V6.10526H52.2L52.2029 33.5789H46.4Z" fill="#BE4E29" style="fill:#BE4E29;fill:color(display-p3 0.7449 0.3054 0.1589);fill-opacity:1;"/>
</svg>
