<svg width="19" height="16" viewBox="0 0 19 16" fill="none" xmlns="http://www.w3.org/2000/svg">
<path d="M17.3822 0.881275L16.6463 0.145332C16.4383 -0.0626585 16.0543 -0.0306494 15.8143 0.257296L13.2541 2.80126C12.102 2.30532 10.8382 2.06532 9.5101 2.06532C5.55798 2.08126 2.1342 4.38523 0.486083 7.69743C0.390056 7.90542 0.390056 8.16135 0.486083 8.33734C1.25402 9.90536 2.40609 11.2014 3.84609 12.1773L1.7501 14.3053C1.5101 14.5453 1.47809 14.9293 1.63813 15.1373L2.37408 15.8732C2.58207 16.0812 2.96606 16.0492 3.20606 15.7613L17.254 1.71339C17.558 1.47352 17.59 1.08956 17.382 0.88155L17.3822 0.881275ZM10.3581 5.71316C10.0861 5.64914 9.79813 5.56919 9.52611 5.56919C8.16606 5.56919 7.07818 6.65721 7.07818 8.01712C7.07818 8.28913 7.14219 8.57708 7.22215 8.8491L6.15003 9.90513C5.83008 9.34518 5.65409 8.72108 5.65409 8.01715C5.65409 5.88918 7.36611 4.17715 9.49409 4.17715C10.1982 4.17715 10.8221 4.35314 11.3821 4.6731L10.3581 5.71316Z" fill="#666666" fill-opacity="0.8" style="fill:#666666;fill:color(display-p3 0.4000 0.4000 0.4000);fill-opacity:0.8;"/>
<path d="M18.5342 7.69737C17.9742 6.57732 17.2381 5.56939 16.3262 4.75336L13.3502 7.69737V8.01732C13.3502 10.1453 11.6382 11.8573 9.51018 11.8573H9.19023L7.30225 13.7453C8.00631 13.8893 8.74225 13.9853 9.46225 13.9853C13.4144 13.9853 16.8382 11.6813 18.4863 8.35319C18.6302 8.12912 18.6302 7.90521 18.5342 7.6972L18.5342 7.69737Z" fill="#666666" fill-opacity="0.8" style="fill:#666666;fill:color(display-p3 0.4000 0.4000 0.4000);fill-opacity:0.8;"/>
</svg>
