<svg width="41" height="42" viewBox="0 0 41 42" fill="none" xmlns="http://www.w3.org/2000/svg">
<path d="M20.5 23.1111V12.5556M20.5 29.4444H20.5211M39.5 21C39.5 23.4951 39.0086 25.9658 38.0537 28.271C37.0989 30.5762 35.6993 32.6707 33.935 34.435C32.1707 36.1993 30.0762 37.5989 27.771 38.5537C25.4658 39.5086 22.9951 40 20.5 40C18.0049 40 15.5342 39.5086 13.229 38.5537C10.9238 37.5989 8.82928 36.1993 7.06497 34.435C5.30066 32.6707 3.90113 30.5762 2.94629 28.271C1.99145 25.9658 1.5 23.4951 1.5 21C1.5 15.9609 3.50178 11.1282 7.06497 7.56497C10.6282 4.00178 15.4609 2 20.5 2C25.5391 2 30.3718 4.00178 33.935 7.56497C37.4982 11.1282 39.5 15.9609 39.5 21Z" stroke="#A0CF3B" style="stroke:#A0CF3B;stroke:color(display-p3 0.6274 0.8116 0.2300);stroke-opacity:1;" stroke-width="3" stroke-linecap="round" stroke-linejoin="round"/>
</svg>
